<svg
  style='width: {{ size }}'
  preserveAspectRatio="xMidYMid meet"
  data-bbox="51.695 54.533 96.61 90.934"
  viewBox="51.695 54.533 96.61 90.934"
  height="200"
  width="200"
  xmlns="http://www.w3.org/2000/svg"
  data-type="color"
  role="presentation"
  aria-hidden="true"
  aria-label=""
>
  <defs><style>#comp-kguj31t6 svg [data-color="1"] {fill: #000000;} #comp-kguj31t6 svg [data-color="2"] {fill: #14A808;}</style></defs>
  <g>
      <path d="M126.57 100.277h10.48v2h-10.48zm0 33.763h10.48v-2h-10.48zm21.735-57.221v62.625a6.03 6.03 0 0 1-6.023 6.023H57.718a6.03 6.03 0 0 1-6.023-6.023V76.819a6.03 6.03 0 0 1 6.023-6.019h27.818v-9.927a6.347 6.347 0 0 1 6.34-6.34h16.248a6.347 6.347 0 0 1 6.34 6.34v2.472h-2v-2.472a4.348 4.348 0 0 0-4.344-4.343H91.876a4.348 4.348 0 0 0-4.344 4.343V70.8h54.75a6.03 6.03 0 0 1 6.023 6.019zm-2 0a4.032 4.032 0 0 0-4.027-4.027h-84.56a4.032 4.032 0 0 0-4.027 4.027v10.889h84.1v2h-84.1v49.74a4.031 4.031 0 0 0 4.027 4.026h84.564a4.031 4.031 0 0 0 4.027-4.026zM64.036 134.04h10.478v-2H64.036zm0-31.766h10.478v-2H64.036zm49.874 8.088v9.478a1 1 0 0 1-1 1h-7.176v7.176a1 1 0 0 1-1 1h-9.473a1 1 0 0 1-1-1v-7.176h-7.173a1 1 0 0 1-1-1v-9.478a1 1 0 0 1 1-1h7.174v-7.175a1 1 0 0 1 1-1h9.477a1 1 0 0 1 1 1v7.175h7.176a1 1 0 0 1 .995 1zm-2 1h-7.176a1 1 0 0 1-1-1v-7.174h-7.475v7.174a1 1 0 0 1-1 1h-7.173v7.482h7.175a1 1 0 0 1 1 1v7.176h7.481v-7.18a1 1 0 0 1 1-1h7.176z" fill="#000010" data-color="1"></path>
      <path d="M103.74 110.362v-7.174h-7.481v7.174a1 1 0 0 1-1 1h-7.173v7.482h7.174a1 1 0 0 1 1 1v7.176h7.481v-7.18a1 1 0 0 1 1-1h7.176v-7.48h-7.176a1 1 0 0 1-1.001-.998z" [attr.fill]="fillColor" data-color="2"></path>
  </g>
</svg>
