<svg
  style='width: {{ size }}'
  preserveAspectRatio="xMidYMid meet"
  data-bbox="58.863 35.533 82.274 128.93"
  viewBox="58.863 35.533 82.274 128.93"
  height="200"
  width="200"
  xmlns="http://www.w3.org/2000/svg"
  data-type="color"
  role="presentation"
  aria-hidden="true"
>
  <defs><style>#comp-kguj6wj3 svg [data-color="1"] {fill: #14A808;} #comp-kguj6wj3 svg {fill: #14A808;}</style></defs>
  <g>
      <path d="M101.808 60.44a9.319 9.319 0 0 0 3.484.736 11.337 11.337 0 0 0 8.168-3.563c1.955-2.338 3.636-8.655 3.864-11.178.456-5.041-3.217-9.286-9.142-10.563C102.221 34.593 97.3 37 95.915 41.88c-.687 2.425-1.383 8.947-.415 11.9a12.216 12.216 0 0 0 6.308 6.66zm-3.972-18.017c1.03-3.635 4.178-4.885 7.29-4.885a12.526 12.526 0 0 1 2.634.286c3.774.813 8.022 3.508 7.575 8.432-.227 2.533-1.914 8.292-3.408 10.078a9.341 9.341 0 0 1-6.584 2.848 7.183 7.183 0 0 1-2.763-.581 10.223 10.223 0 0 1-5.182-5.44c-.744-2.269-.254-8.297.438-10.738zm43.215 43.882a1 1 0 0 0-.038-.211c-.391-1.336-1.608-1.822-2.967-1.985l.276-4.081-1.991-.135-.282 4.149q-.294.006-.576.015c-.371.01-.718.025-1.025.016a1.148 1.148 0 0 0-.333.052l-1.476.494-13.919-.143-8.406-15.963a14.876 14.876 0 0 0-14.4-7.451 11.824 11.824 0 0 0-2.01.433l-.149-.4c-.714-1.949-1.454-3.963-3.15-4.266-1.976-.354-4.311-.751-6.657-1.006-4.989-.558-11.451 6.6-14.925 10.445l-.564.622a1 1 0 0 0-.216.378c-.254.821-6.2 20.128-6.82 22.791-.674 2.909.716 7 .776 7.171a1 1 0 0 0 .617.619l15.7 5.418a10.764 10.764 0 0 0 .977 7.155l-.115.007.75 13.233a3.12 3.12 0 0 1-1.006 2.381l-18.23 20.072-.19.242c-1.041 1.316-2.979 3.767-.951 5.88l14.189 11.52c.751.678 1.882.584 2.95-.25a4.027 4.027 0 0 0 1.372-4.978l-4.3-7.083.088-1.244 16.82-16.433c.75-.875 1.483-1.8 2.131-2.68a8.591 8.591 0 0 0 1.7-3.208l3.095 3.473a4.089 4.089 0 0 1 1.153 2.352l3.26 26.2c.345 2.8 1.819 4.506 3.94 4.557h.024a1.031 1.031 0 0 0 .214-.023l17.633-3.879c.96-.1 1.649-.955 1.81-2.257a4.025 4.025 0 0 0-2.5-4.473.968.968 0 0 0-.249-.041l-8.287-.347-.766-.883-1.249-24.153a9.037 9.037 0 0 0-1.74-5.7c-.242-.387-.522-.834-.879-1.433l-9.057-13.3-.376-.545c-.852-1.219-1.109-1.587-.567-3.153l5.1-18.034q2.844 4.437 5.69 8.893a.987.987 0 0 0 .258.273l2.3 1.661a1.079 1.079 0 0 0 .608.189l21.154-.524-4.595 66.393 1.991.138 4.577-66.136.037-.515a3.911 3.911 0 0 0 1.921-1.079c1.575-1.571 2.177-4.593 1.85-9.23zM78.879 101.1l-.03.169-14.9-5.145c-.315-1.062-1.008-3.757-.577-5.613.569-2.45 6.054-20.287 6.718-22.444l.418-.462c3-3.323 9.258-10.221 13.227-9.8 2.286.25 4.58.64 6.523.988.568.1 1.231 1.908 1.627 2.988.059.157.116.315.173.469-2.568 1.327-5.264 4-6.532 9.333zm14.085 25.537a7.184 7.184 0 0 1-1.519 3.2 48.489 48.489 0 0 1-2.03 2.566l-17.032 16.636a1 1 0 0 0-.3.642l-.139 1.939a1 1 0 0 0 .143.591l4.439 7.3a1.7 1.7 0 0 1-.185 1.641 2.379 2.379 0 0 1-1.157 1.042L61.1 150.773c-.619-.649-.068-1.618 1.167-3.179L80.584 127.4a5.043 5.043 0 0 0 1.54-3.853l-.592-10.442.054.056 11.507 12.914zm44.829-32.5a2.248 2.248 0 0 1-1.879.6l-21.5.529-1.88-1.366a6833.921 6833.921 0 0 0-9.626-15.029l-.539-.839-1.679 1.079.539.839 2.6 4.046-5.569 19.681c-.858 2.473-.111 3.543.834 4.9l9.386 13.775c.334.561.621 1.021.869 1.419 1.078 1.725 1.3 2.083 1.44 4.744l1.267 24.5a1 1 0 0 0 .244.6l1.272 1.467a.994.994 0 0 0 .712.344l8.571.358a1.759 1.759 0 0 1 .926 1.251 2.373 2.373 0 0 1-.083 1.561c-.013 0-.027 0-.041.007l-17.566 3.865c-1.364-.116-1.776-1.794-1.9-2.8l-3.262-26.229a6.075 6.075 0 0 0-1.677-3.448L83.043 111.8c-3.406-3.473-2.893-6.4-2.243-10.1l6.665-29.665c.981-4.122 3.1-6.976 6.072-8.277l.26-.109a9.534 9.534 0 0 1 2.366-.605 12.793 12.793 0 0 1 12.384 6.4l8.683 16.49a1 1 0 0 0 .874.533l14.682.151a1.118 1.118 0 0 0 .327-.052l1.478-.494h.01c.286 0 .6-.009.931-.018 1.135-.037 3.212-.093 3.537.532.324 4.845-.513 6.779-1.276 7.546z" fill="#000010" data-color="1"></path>
      <path d="M92.053 62.25c-.057-.154-.114-.312-.173-.469-.4-1.08-1.059-2.887-1.627-2.988-1.943-.348-4.237-.738-6.523-.988-3.969-.421-10.222 6.477-13.227 9.8l-.418.462c-.664 2.157-6.149 19.994-6.718 22.444-.431 1.856.262 4.551.577 5.613l14.905 5.145.03-.169 6.642-29.517c1.268-5.333 3.964-8.006 6.532-9.333z" [attr.fill]="fillColor" data-color="2"></path>
  </g>
</svg>
