<svg
  style='width: {{ size }}'
  preserveAspectRatio="xMidYMid meet"
  data-bbox="56.44 53.564 87.124 92.887"
  viewBox="56.44 53.564 87.124 92.887"
  height="200"
  width="200"
  xmlns="http://www.w3.org/2000/svg"
  data-type="color"
  role="presentation"
  aria-hidden="true"
>
  <defs><style>#comp-kguj6wja svg [data-color="1"] {fill: #000000;}#comp-kguj6wja svg [data-color="2"] {fill: #14A808;}</style></defs>
  <g>
      <path d="M75.56 101.853a8.6 8.6 0 0 0-2.1 5.732l.051.993-1.987.111-.057-.993a10.513 10.513 0 0 1 2.621-7.189c1.964-2.106 4.853-3.2 8.586-3.243h.168c5.348 0 10.894 3.2 16.258 6.3 4.894 2.825 9.517 5.494 13.481 5.494h.03c9.08-.03 13.495-2.823 13.5-8.54v-1h2v1c0 4.782-2.694 10.491-15.492 10.533h-.035c-4.5 0-9.346-2.8-14.479-5.762s-10.447-6.032-15.26-6.032H82.7c-3.161.043-5.562.915-7.14 2.596zm38.011-22.684h-2v25.067h2zm15.045 16.182l-.81-1.148c-.412-.583-10.112-14.337-12.442-18.8a14.938 14.938 0 0 1-1.57-5.062L86 83.92v9.224h-2V83.92l-25.574-12.5v59.935L81.7 142.728l2.3 1.126v-40.173h2v40.2l25.574-12.524v-16.14h2v16.14l25.574 12.5V84.326h2v61.127a1 1 0 0 1-.469.846 1 1 0 0 1-.967.051l-27.131-13.26-26.793 13.118-.058-.118a.936.936 0 0 1-.2.209 1 1 0 0 1-.967.051l-5.534-2.7L57 132.876a1 1 0 0 1-.56-.9V69.823a1 1 0 0 1 1.436-.9L85 82.186l28.029-13.7.735 1.5a14.937 14.937 0 1 1 29.8-1.5 14.815 14.815 0 0 1-1.494 6.522c-2.272 4.677-12.215 18.6-12.638 19.192zm.01-3.455c2.474-3.5 9.818-13.986 11.648-17.752a12.82 12.82 0 0 0 1.295-5.65 12.948 12.948 0 1 0-25.9 0 12.8 12.8 0 0 0 1.461 5.982c1.888 3.613 9.063 13.945 11.496 17.424zm0-16.721a6.682 6.682 0 1 1 6.682-6.681 6.689 6.689 0 0 1-6.687 6.681zm4.685-6.681a4.686 4.686 0 1 0-4.685 4.685 4.689 4.689 0 0 0 4.68-4.685z" fill="#000010" data-color="1"></path>
      <path d="M128.621 55.545a12.963 12.963 0 0 0-12.948 12.949 12.8 12.8 0 0 0 1.461 5.982c1.884 3.613 9.059 13.945 11.492 17.42 2.474-3.5 9.818-13.986 11.648-17.752a12.82 12.82 0 0 0 1.295-5.65 12.964 12.964 0 0 0-12.948-12.949zm0 19.63a6.682 6.682 0 1 1 6.682-6.681 6.689 6.689 0 0 1-6.682 6.681z" [attr.fill]='fillColor' data-color="2"></path>
      <path [attr.fill]='fillColor' d="M75.072 112.067l-3.198 3.197-3.198-3.197-1.412 1.411 3.198 3.198-3.198 3.197 1.412 1.412 3.198-3.198 3.198 3.198 1.411-1.412-3.198-3.197 3.198-3.198-1.411-1.411z" data-color="2"></path>
  </g>
</svg>
