<svg
  style='width: {{ size }}'
  preserveAspectRatio="xMidYMid meet"
  data-bbox="18.797 33.746 162.406 132.505"
  viewBox="18.797 33.746 162.406 132.505"
  height="200"
  width="200"
  xmlns="http://www.w3.org/2000/svg"
  data-type="color"
  role="presentation"
  aria-hidden="true"
>
  <defs><style>#comp-kguj6wj8 svg [data-color="1"] {fill: #000000;} #comp-kguj6wj8 svg [data-color="2"] {fill: #14A808;}</style></defs>
  <g>
      <path d="M40.113 58.514a11.378 11.378 0 0 0 1.679.133 12.01 12.01 0 0 0 1.8-.148 11.488 11.488 0 0 0 7.192-5.055c1.458-2.622 1.951-8.979 1.722-11.429-.536-5.681-5.918-8.269-10.692-8.269s-10.156 2.588-10.691 8.269c-.229 2.446.261 8.8 1.719 11.428a11.527 11.527 0 0 0 7.271 5.071zm-7-16.311c.42-4.462 4.674-6.46 8.7-6.46s8.284 2 8.7 6.458c.23 2.457-.366 8.274-1.479 10.273a9.489 9.489 0 0 1-5.816 4.065 8.9 8.9 0 0 1-2.74.015 9.525 9.525 0 0 1-5.894-4.08c-1.108-2.004-1.703-7.82-1.472-10.274zm67.262 89.357l-2.283-8.245c-.662-2.257-2.63-4.911-8.213-4.918a7.218 7.218 0 0 0 2.9-2.7c1-1.794 1.32-5.966 1.164-7.641-.319-3.39-3.256-5.667-7.306-5.667s-6.987 2.277-7.307 5.667c-.156 1.673.167 5.844 1.161 7.639a7.19 7.19 0 0 0 2.929 2.705c-1.321-.031-2.314-.082-2.676-.142l-9.115-5.992-3.6-19.732c-.053-3.8-1.944-19.391-3.962-23.455-1.915-3.853-3.957-6.456-8.214-7.526-4.08-1.024-21.989-1.053-26.253-.042-5.676 1.351-9.4 7.389-9.723 12.447l-.89 13.926a20.506 20.506 0 0 0-.089 4.823l1.648 21.008c.223 1.266 1.732 2.224 3.191 3.15l.576.369a2.439 2.439 0 0 0 1.87.3L26.047 137l.511 24.59c.024.573.332 1.387 1.657 2 2.407 1.108 7.442 1.174 9.292-.274a2.1 2.1 0 0 0 .867-1.959l1.532-23.317 1.9-21.214 1.891 21.192 1.541 23.339a2.1 2.1 0 0 0 .864 1.959c1.849 1.449 6.881 1.383 9.29.274 1.326-.609 1.634-1.422 1.66-2.019l.507-24.594-.152-22.1h.014l-.006-1c-.043-6.164-.139-13.418-.525-20.408.069-2.332.087-4.755.1-7.2v-.008l.893 6.138 5.641 23.311a.886.886 0 0 0 .04.127 1.9 1.9 0 0 0 2.245 1.426.914.914 0 0 1 .955.316c1.236 1.17 2.576 2.421 3.92 3.678 2.542 2.373 5.166 4.824 6.977 6.646.052 1.632.136 3.124.219 4.581.107 1.882.208 3.658.234 5.6.037 2.848-.058 6.01-.149 9.067-.043 1.433-.086 2.87-.117 4.288a19.2 19.2 0 0 0 .1 2.473l.982 10.229c.078.685.24 2.11 1.89 2.11h4.857a1.75 1.75 0 0 0 1.293-.544 2.352 2.352 0 0 0 .524-1.8v-.117a9.185 9.185 0 0 0 5-.4 1.931 1.931 0 0 0 1.2-1.52l1.073-10.223a6.6 6.6 0 0 0 .142-1.91l.116-2.01 1.517.061a.9.9 0 0 0 .335-.043l2.806-.868a1 1 0 0 0 .7-.924c.159-5.2.245-8.668.029-14.162a.967.967 0 0 0-.038-.231zM82.24 114.727c-.7-1.255-1.065-4.929-.919-6.486.268-2.848 3.032-3.858 5.318-3.858s5.05 1.01 5.318 3.857c.145 1.558-.225 5.232-.922 6.488a5.772 5.772 0 0 1-3.53 2.467 4.094 4.094 0 0 1-1.656.014 5.813 5.813 0 0 1-3.609-2.482zm16.166 30.449l-1.961.607-1.31-.054.045-.8-.841-16.821-1.994.1.841 16.713-.275 4.827a5.619 5.619 0 0 1-.119 1.581l-1.077 10.209c-.585.465-3.331.575-4.276.186l-.206-8.639a5.506 5.506 0 0 1 .046-.983l1-8.578-1.982-.23-.994 8.56a7.317 7.317 0 0 0-.06 1.3l.229 9.631-.044.074.073 1.122a1.99 1.99 0 0 1 0 .275H80.96c-.017-.106-.031-.229-.042-.319l-.98-10.213a17.437 17.437 0 0 1-.087-2.24c.03-1.411.073-2.841.116-4.269.092-3.078.187-6.262.151-9.153-.026-1.989-.129-3.786-.237-5.69-.088-1.556-.179-3.154-.23-4.919a1 1 0 0 0-.286-.67c-1.843-1.878-4.623-4.474-7.312-6.985-1.34-1.25-2.678-2.5-3.907-3.667a2.858 2.858 0 0 0-2.555-.85l-.081.009a1.426 1.426 0 0 1-.056-.119l-5.613-23.148L57.3 74.5c.018-.266.036-.533.056-.8l.074-1-1.991-.148-.074 1-.008.108-.191.028.129.89c-.241 3.8-.271 7.8-.3 11.672-.019 2.435-.035 4.842-.1 7.244.355 6.473.464 13.11.512 18.913h-.017l.169 24.551-.489 24.47c-.278.481-2.722 1.19-5.473.94-1.67-.153-2.332-.6-2.38-.783a.945.945 0 0 0 .016-.255l-1.55-23.472-1.995-22.358-1.887.168-1.885-.168-2 22.392-1.541 23.45a1.121 1.121 0 0 0 .019.283c-.052.147-.711.6-2.376.751-2.749.259-5.205-.455-5.465-.842l-.51-24.539.143-20.5h.009l-.009-.013.029-4.063h-.16c.12-6.516.342-12.625.686-19-.061-2.026-.1-4.116-.135-6.232-.078-4.52-.16-9.191-.486-13.587l-.074-1-1.991.148.074 1c.322 4.338.4 8.982.482 13.471.036 2.125.073 4.225.135 6.174-.4 7.322-.634 14.366-.737 22.1a.688.688 0 0 1-.622.061l-.581-.373a9.9 9.9 0 0 1-2.281-1.713L20.89 92.552a18.6 18.6 0 0 1 .084-4.489l.894-13.978c.272-4.24 3.481-9.51 8.194-10.632 3.989-.946 21.49-.921 25.307.037 3.529.886 5.207 3.046 6.912 6.478C64.034 73.5 66.01 88.8 66.036 92.635a.905.905 0 0 0 .016.173l3.688 20.237a1.01 1.01 0 0 0 .434.655l9.6 6.309c.846.556 8.244.421 9.717.388 3.712-.07 5.984 1.086 6.682 3.466l2.247 8.118c.197 5.108.128 8.46-.014 13.195zm19.044-43.917c-.083-.807-.174-1.677-.236-2.62-.191-2.959 1.044-6.789 12.4-10.176l.957-.286-.571-1.913-.956.286c-9.912 2.958-14.173 6.726-13.817 12.218.063.97.155 1.866.242 2.7.456 4.4.664 6.407-4.618 8.806-.511.232-1.062.459-1.625.686V54.776h23.514a1 1 0 0 0 .58-.186l6.88-4.914a1 1 0 0 0 .022-1.609l-6.88-5.2a1 1 0 0 0-.6-.2h-23.52v-8.145h-2v26.406H83.711a1 1 0 0 0-.6.2l-6.88 5.2a1 1 0 0 0 .022 1.609l6.88 4.915a1 1 0 0 0 .58.186h23.515v38.672a72.92 72.92 0 0 1-5.364 1.663l-.964.26.521 1.928.963-.262a61.76 61.76 0 0 0 9.29-3.209c6.589-2.99 6.249-6.282 5.776-10.831zm-8.228-56.595h23.184l5.529 4.178-5.515 3.938h-23.2zm-2 26.376H84.031l-5.515-3.94 5.529-4.176h23.181zm73.322 48.181c-1.5 5.12-5.993 10.143-13.346 14.932-12.091 7.975-32.241 16.185-59.885 24.4l-.958.284-.568-1.914.957-.284c27.457-8.155 47.428-16.281 59.36-24.153 6.947-4.523 11.16-9.173 12.524-13.822 2.912-9.916-6.223-14.69-15.056-19.307-1.207-.631-2.4-1.256-3.557-1.888-7.02-3.849-10.215-7.251-9.766-10.4.443-3.115 4.36-5.451 11.977-7.142l.973-.216.433 1.949-.975.217c-8.238 1.828-10.22 3.986-10.432 5.474-.176 1.237.726 3.971 8.749 8.369 1.142.625 2.328 1.245 3.524 1.869 9.102 4.752 19.423 10.145 16.05 21.632z" fill="#000010" data-color="1"></path>
      <path [attr.fill]="fillColor" d="M137.935 48.842l-5.529-4.178h-23.184v8.116h23.198l5.515-3.938z" data-color="2"></path>
      <path [attr.fill]="fillColor" d="M78.516 67.1l5.515 3.94h23.195v-8.116H84.045L78.516 67.1z" data-color="2"></path>
  </g>
</svg>
