<?xml version="1.0" ?><svg data-name="Layer 1" id="Layer_1" viewBox="0 0 64 64" xmlns="http://www.w3.org/2000/svg"><defs><style>.cls-1{fill:#4fbe9f;}.cls-2{fill:#09816c;}</style></defs><title/><path class="cls-1" d="M49.56,8H14.5A6.47,6.47,0,0,0,8,14.47V49.53A6.47,6.47,0,0,0,14.5,56H28.58a3.21,3.21,0,0,0,3.21-3.21l0-13.54a.4.4,0,0,0-.4-.4H27.36a1,1,0,0,1-1.05-1.05l0-5.53a1,1,0,0,1,1.05-1.05h4.05a.4.4,0,0,0,.4-.4V25.87c0-6.2,3.79-9.57,9.32-9.57h4.53a1.06,1.06,0,0,1,1.06,1.05V22a1.05,1.05,0,0,1-1.06,1H42.86c-3,0-3.59,1.43-3.59,3.53v4.23a.4.4,0,0,0,.4.4h6.21a1,1,0,0,1,1,1.17l-.65,5.53a1.06,1.06,0,0,1-1.05.93H39.7a.4.4,0,0,0-.4.4l0,13.53A3.22,3.22,0,0,0,42.49,56h7.07A6.47,6.47,0,0,0,56,49.53V14.47A6.47,6.47,0,0,0,49.56,8Z"/><path class="cls-2" d="M56,26.68,46.7,17.35h0V22a1.05,1.05,0,0,1-1.06,1H42.86c-3,0-3.59,1.43-3.59,3.53v4.23a.4.4,0,0,0,.4.4h6.21a1,1,0,0,1,1,1.17l-.65,5.53a1.06,1.06,0,0,1-1.05.93H39.7a.4.4,0,0,0-.4.4l0,13.53A3.22,3.22,0,0,0,42.49,56h7.07A6.47,6.47,0,0,0,56,49.53Z"/><path class="cls-2" d="M31.81,43.81V39.25a.4.4,0,0,0-.4-.4H27.36a1,1,0,0,1-.65-.25l-.05.06Z"/></svg>
